<svg width="33" height="35" viewBox="0 0 33 35" fill="none" xmlns="http://www.w3.org/2000/svg">
<path d="M30.5526 18.8127L30.2858 18.5531L29.8215 18.1584L29.5236 17.9161L28.8341 17.4834L28.0373 17.1513L27.1021 16.9369L26.0213 16.6811L25.1172 16.4494L24.2096 16.138L23.3955 15.7747L22.5952 15.3629L21.6425 14.7502L21.0327 14.314L20.3259 13.8502L19.491 13.376L18.6284 12.9989L18.0949 12.8467L17.5788 12.7257L16.9207 12.6428L16.221 12.7055L15.3656 12.8548L14.5968 13.1599L13.8488 13.5758L13.184 14.068L12.3635 15.0139L11.7475 16.2541L11.457 17.2725L11.3985 18.1212L11.3919 19.0633L11.4687 20.4487L11.5073 21.6921L11.3623 22.752L11.162 24.006L10.1761 27.0024L10.0758 27.2622L9.97223 28.1767L10.0142 29.1326L10.316 30.1889L10.6593 31.0997L11.148 32.052L11.5882 32.6233L12.3539 33.3399L13.2097 33.9249L13.958 34.2433L14.8309 34.4923L15.8562 34.575L16.9541 34.4949L17.6952 34.2867L18.7099 33.7633L19.5547 33.0079L19.9908 32.3981L20.1362 32.0724L20.5238 31.4488L20.8803 30.8425L21.1918 30.3021L21.5691 29.8066L21.8703 29.3943L22.2685 29.0097L22.7498 28.7012L23.3939 28.4654L23.8822 28.3163L24.7897 28.2605L25.9049 28.2115L26.8817 28.2804L27.7442 28.2904L28.5546 28.2069L29.2473 27.985L29.7944 27.7215L30.2134 27.4477L30.795 26.8794L31.4424 25.989L31.823 25.2061L32.1135 24.1876L32.2344 23.3044L32.1716 22.2376L31.9703 21.2886L31.6825 20.551L31.2839 19.8342L31.0274 19.4464L30.5526 18.8127Z" fill="#B7DF68" fill-opacity="0.6"/>
<path d="M18.9263 3.76784C17.7392 0.976678 15.19 -0.611124 13.2326 0.221387C11.2752 1.0539 10.6507 3.99147 11.8378 6.78263C13.0249 9.5738 15.574 11.1616 17.5315 10.3291C19.4889 9.49658 20.1134 6.55901 18.9263 3.76784Z" fill="#B7DF68" fill-opacity="0.6"/>
<path d="M9.8797 14.5676C11.6196 13.3439 11.6157 10.3407 9.87089 7.8597C8.12609 5.37868 5.30115 4.35936 3.56122 5.58299C1.82128 6.80661 1.82522 9.80982 3.57002 12.2908C5.31482 14.7719 8.13976 15.7912 9.8797 14.5676Z" fill="#B7DF68" fill-opacity="0.6"/>
<path d="M29.4482 8.14562C28.5913 5.25672 26.2434 3.40519 24.2042 4.01011C22.165 4.61504 21.2066 7.44734 22.0635 10.3362C22.9205 13.2251 25.2683 15.0767 27.3076 14.4717C29.3468 13.8668 30.3052 11.0345 29.4482 8.14562Z" fill="#B7DF68" fill-opacity="0.6"/>
<path d="M8.25301 25.0669C9.84275 23.6538 9.50856 20.6824 7.50656 18.4303C5.50456 16.1782 2.59287 15.498 1.00313 16.9112C-0.58662 18.3244 -0.252424 21.2957 1.74958 23.5479C3.75157 25.8 6.66326 26.4801 8.25301 25.0669Z" fill="#B7DF68" fill-opacity="0.6"/>
</svg>
