<svg width="1300" height="150" viewBox="0 0 1300 150" fill="none" xmlns="http://www.w3.org/2000/svg">
<g opacity="0.6">
<mask id="path-1-outside-1_1148_5115" maskUnits="userSpaceOnUse" x="0" y="0" width="1300" height="153" fill="black">
<rect fill="white" width="1300" height="153"/>
<path d="M19.8827 147.997H3.70345C3.23448 147.997 3 147.663 3 146.996L3.28138 6.10422C3.28138 5.57016 3.46896 5.30313 3.84414 5.30313H49.9903C50.4593 5.30313 50.6937 5.57016 50.6937 6.10422V29.2357C50.6937 29.7698 50.5062 30.0368 50.131 30.0368H20.5862V61.8801H50.131C50.5062 61.8801 50.6937 62.2139 50.6937 62.8815L50.8344 86.1131C50.8344 86.6471 50.5999 86.9142 50.131 86.9142H20.5862V146.996C20.5862 147.663 20.3517 147.997 19.8827 147.997Z"/>
<path d="M101.682 150C96.6176 150 91.928 148.131 87.6135 144.392C83.299 140.654 79.8521 135.647 77.2728 129.372C74.7404 123.03 73.4742 116.121 73.4742 108.644L73.7556 6.10422C73.7556 5.57016 73.9431 5.30313 74.3183 5.30313H90.4976C90.8728 5.30313 91.0604 5.57016 91.0604 6.10422V108.644C91.0604 113.25 92.0921 117.189 94.1555 120.46C96.219 123.664 98.728 125.266 101.682 125.266C104.778 125.266 107.357 123.664 109.42 120.46C111.484 117.189 112.516 113.25 112.516 108.644V6.10422C112.516 5.57016 112.703 5.30313 113.078 5.30313H129.258C129.633 5.30313 129.82 5.57016 129.82 6.10422L130.102 108.644C130.102 116.187 128.835 123.13 126.303 129.472C123.724 135.747 120.3 140.754 116.033 144.493C111.765 148.164 106.982 150 101.682 150Z"/>
<path d="M179.472 147.797L153.656 147.997C153.187 147.997 152.952 147.663 152.952 146.996L153.234 6.10422C153.234 5.57016 153.421 5.30313 153.797 5.30313L180.739 5.10286C186.085 4.90259 190.915 6.63828 195.23 10.3099C199.591 13.9816 203.061 18.955 205.641 25.2302C208.267 31.4387 209.58 38.3147 209.58 45.8583V104.738C209.58 112.616 208.243 119.826 205.57 126.368C202.85 132.843 199.239 138.017 194.737 141.889C190.235 145.694 185.147 147.663 179.472 147.797ZM180.739 29.6362L170.679 29.8365L170.539 122.763H179.472C183.037 122.763 186.038 120.994 188.477 117.456C190.915 113.918 192.135 109.678 192.135 104.738V45.658C192.135 41.3188 191.009 37.547 188.758 34.3426C186.507 31.0715 183.834 29.5027 180.739 29.6362Z"/>
<path d="M258.951 147.797L233.134 147.997C232.665 147.997 232.431 147.663 232.431 146.996L232.712 6.10422C232.712 5.57016 232.9 5.30313 233.275 5.30313L260.217 5.10286C265.563 4.90259 270.393 6.63828 274.708 10.3099C279.069 13.9816 282.54 18.955 285.119 25.2302C287.745 31.4387 289.058 38.3147 289.058 45.8583V104.738C289.058 112.616 287.722 119.826 285.049 126.368C282.329 132.843 278.718 138.017 274.216 141.889C269.714 145.694 264.625 147.663 258.951 147.797ZM260.217 29.6362L250.158 29.8365L250.017 122.763H258.951C262.515 122.763 265.516 120.994 267.955 117.456C270.393 113.918 271.613 109.678 271.613 104.738V45.658C271.613 41.3188 270.487 37.547 268.236 34.3426C265.985 31.0715 263.312 29.5027 260.217 29.6362Z"/>
<path d="M359.04 147.997H312.472C312.097 147.997 311.909 147.663 311.909 146.996L312.05 6.3045C312.05 5.63692 312.284 5.30313 312.753 5.30313H328.792C329.261 5.30313 329.495 5.63692 329.495 6.3045L329.355 122.763H359.04C359.509 122.763 359.744 123.097 359.744 123.764V146.996C359.744 147.663 359.509 147.997 359.04 147.997Z"/>
<path d="M397.578 147.997H381.258C380.883 147.997 380.695 147.663 380.695 146.996L380.976 6.10422C380.976 5.57016 381.164 5.30313 381.539 5.30313H410.662C415.867 5.30313 420.651 7.10559 425.012 10.7105C429.374 14.3154 432.844 19.1553 435.423 25.2302C438.049 31.3052 439.363 38.1812 439.363 45.8583C439.363 50.8651 438.823 55.4046 437.745 59.4768C436.666 63.549 435.4 66.9871 433.946 69.7909C432.539 72.5947 431.249 74.6642 430.077 75.9993C435.283 84.2105 437.885 93.8569 437.885 104.939L438.026 146.996C438.026 147.663 437.792 147.997 437.323 147.997H421.003C420.627 147.997 420.44 147.797 420.44 147.396V104.939C420.44 99.9986 419.22 95.7262 416.782 92.1213C414.343 88.5163 411.342 86.7139 407.778 86.7139H398.281L398.141 146.996C398.141 147.663 397.953 147.997 397.578 147.997ZM410.662 29.8365H398.281V62.0804H410.662C413.616 62.0804 416.243 60.5116 418.54 57.374C420.885 54.2364 422.058 50.3978 422.058 45.8583C422.058 41.5191 420.932 37.7807 418.681 34.6431C416.43 31.4387 413.757 29.8365 410.662 29.8365Z"/>
<path d="M537.19 147.797L511.373 147.997C510.904 147.997 510.67 147.663 510.67 146.996L510.951 6.10422C510.951 5.57016 511.139 5.30313 511.514 5.30313L538.456 5.10286C543.802 4.90259 548.632 6.63828 552.947 10.3099C557.308 13.9816 560.779 18.955 563.358 25.2302C565.984 31.4387 567.297 38.3147 567.297 45.8583V104.738C567.297 112.616 565.961 119.826 563.287 126.368C560.567 132.843 556.956 138.017 552.454 141.889C547.952 145.694 542.864 147.663 537.19 147.797ZM538.456 29.6362L528.396 29.8365L528.256 122.763H537.19C540.754 122.763 543.755 120.994 546.194 117.456C548.632 113.918 549.852 109.678 549.852 104.738V45.658C549.852 41.3188 548.726 37.547 546.475 34.3426C544.224 31.0715 541.551 29.5027 538.456 29.6362Z"/>
<path d="M607.171 147.997H590.851C590.382 147.997 590.148 147.663 590.148 146.996L590.289 6.10422C590.289 5.57016 590.476 5.30313 590.851 5.30313H607.031C607.406 5.30313 607.593 5.57016 607.593 6.10422L607.734 146.996C607.734 147.663 607.547 147.997 607.171 147.997Z"/>
<path d="M656.401 150C651.29 150 646.577 148.131 642.262 144.392C637.995 140.654 634.571 135.681 631.992 129.472C629.459 123.197 628.193 116.321 628.193 108.844V99.4312C628.193 98.6969 628.428 98.3297 628.897 98.3297H645.076C645.451 98.3297 645.639 98.6969 645.639 99.4312V108.844C645.639 113.317 646.694 117.189 648.804 120.46C650.914 123.664 653.447 125.266 656.401 125.266C659.403 125.266 661.959 123.631 664.069 120.36C666.179 117.022 667.234 113.183 667.234 108.844C667.234 103.837 664.937 99.4646 660.341 95.7262C659.59 95.0586 658.606 94.2575 657.386 93.3229C656.214 92.3215 654.807 91.1867 653.166 89.9183C651.524 88.6499 649.93 87.4148 648.382 86.2132C646.834 84.9448 645.334 83.7432 643.88 82.6083C638.628 78.2023 634.712 72.6948 632.132 66.0858C629.6 59.4101 628.334 51.9332 628.334 43.6553C628.334 36.045 629.647 29.1689 632.273 23.0272C634.899 16.9523 638.323 12.1458 642.543 8.60763C646.811 5.00272 651.43 3.20027 656.401 3.20027C661.513 3.20027 666.203 5.00272 670.47 8.60763C674.738 12.2793 678.138 17.1526 680.67 23.2275C683.25 29.3025 684.539 36.1117 684.539 43.6553V60.4782C684.539 61.0123 684.352 61.2793 683.977 61.2793H667.797C667.422 61.2793 667.234 61.0123 667.234 60.4782L667.094 43.6553C667.094 38.8488 666.039 34.9435 663.928 31.9394C661.818 28.9353 659.309 27.4332 656.401 27.4332C653.447 27.4332 650.914 29.0354 648.804 32.2398C646.694 35.4441 645.639 39.2493 645.639 43.6553C645.639 48.1281 646.295 51.8665 647.608 54.8706C648.968 57.8747 651.43 60.7452 654.995 63.4823C655.37 63.7493 656.237 64.4169 657.597 65.485C658.957 66.5531 660.458 67.7548 662.099 69.0899C663.788 70.3583 665.312 71.5266 666.672 72.5947C668.032 73.5961 668.852 74.1969 669.134 74.3971C673.917 78.2023 677.692 82.8753 680.459 88.4162C683.273 93.9571 684.68 100.766 684.68 108.844C684.68 116.655 683.414 123.664 680.881 129.873C678.302 136.081 674.879 140.988 670.611 144.593C666.343 148.198 661.607 150 656.401 150Z"/>
<path d="M736.935 147.997H720.685C720.263 147.997 720.052 147.663 720.052 146.996V30.0368H701.34C700.871 30.0368 700.637 29.703 700.637 29.0354L700.778 6.10422C700.778 5.57016 700.965 5.30313 701.34 5.30313H756.069C756.585 5.30313 756.842 5.57016 756.842 6.10422V29.0354C756.842 29.703 756.655 30.0368 756.28 30.0368H737.357L737.498 146.996C737.498 147.663 737.31 147.997 736.935 147.997Z"/>
<path d="M792.285 147.997H775.965C775.59 147.997 775.402 147.663 775.402 146.996L775.684 6.10422C775.684 5.57016 775.871 5.30313 776.246 5.30313H805.369C810.575 5.30313 815.358 7.10559 819.719 10.7105C824.081 14.3154 827.551 19.1553 830.13 25.2302C832.757 31.3052 834.07 38.1812 834.07 45.8583C834.07 50.8651 833.53 55.4046 832.452 59.4768C831.373 63.549 830.107 66.9871 828.653 69.7909C827.246 72.5947 825.957 74.6642 824.784 75.9993C829.99 84.2105 832.592 93.8569 832.592 104.939L832.733 146.996C832.733 147.663 832.499 147.997 832.03 147.997H815.71C815.335 147.997 815.147 147.797 815.147 147.396V104.939C815.147 99.9986 813.928 95.7262 811.489 92.1213C809.05 88.5163 806.049 86.7139 802.485 86.7139H792.988L792.848 146.996C792.848 147.663 792.66 147.997 792.285 147.997ZM805.369 29.8365H792.988V62.0804H805.369C808.324 62.0804 810.95 60.5116 813.248 57.374C815.593 54.2364 816.765 50.3978 816.765 45.8583C816.765 41.5191 815.639 37.7807 813.388 34.6431C811.137 31.4387 808.464 29.8365 805.369 29.8365Z"/>
<path d="M873.451 147.997H857.132C856.663 147.997 856.428 147.663 856.428 146.996L856.569 6.10422C856.569 5.57016 856.756 5.30313 857.132 5.30313H873.311C873.686 5.30313 873.874 5.57016 873.874 6.10422L874.014 146.996C874.014 147.663 873.827 147.997 873.451 147.997Z"/>
<path d="M924.581 147.997H898.764C898.389 147.997 898.202 147.663 898.202 146.996L898.483 6.10422C898.483 5.57016 898.671 5.30313 899.046 5.30313H926.762C932.155 5.30313 937.055 7.17234 941.464 10.9108C945.778 14.6492 949.178 19.6226 951.664 25.8311C954.149 31.9728 955.392 38.6485 955.392 45.8583C955.392 51.733 954.454 57.2071 952.578 62.2807C950.702 67.3542 948.475 71.4598 945.895 74.5974C948.662 78.5361 950.819 83.109 952.367 88.3161C953.915 93.5232 954.688 98.9973 954.688 104.738C954.688 112.683 953.352 119.926 950.679 126.468C947.959 133.01 944.324 138.251 939.775 142.189C935.226 146.061 930.162 147.997 924.581 147.997ZM926.762 29.6362H915.788V61.8801H926.762C930.091 61.8801 932.788 60.2112 934.851 56.8733C936.915 53.4687 937.946 49.797 937.946 45.8583C937.946 41.5191 936.844 37.7473 934.64 34.5429C932.436 31.2718 929.81 29.6362 926.762 29.6362ZM924.581 86.7139H915.788L915.647 122.963H924.581C928.051 122.963 931.029 121.161 933.515 117.556C936 113.951 937.243 109.678 937.243 104.738C937.243 99.7984 936 95.5593 933.515 92.0211C931.029 88.483 928.051 86.7139 924.581 86.7139Z"/>
<path d="M1003.07 150C998.01 150 993.32 148.131 989.005 144.392C984.691 140.654 981.244 135.647 978.665 129.372C976.132 123.03 974.866 116.121 974.866 108.644L975.148 6.10422C975.148 5.57016 975.335 5.30313 975.71 5.30313H991.89C992.265 5.30313 992.452 5.57016 992.452 6.10422V108.644C992.452 113.25 993.484 117.189 995.547 120.46C997.611 123.664 1000.12 125.266 1003.07 125.266C1006.17 125.266 1008.75 123.664 1010.81 120.46C1012.88 117.189 1013.91 113.25 1013.91 108.644V6.10422C1013.91 5.57016 1014.1 5.30313 1014.47 5.30313H1030.65C1031.02 5.30313 1031.21 5.57016 1031.21 6.10422L1031.49 108.644C1031.49 116.187 1030.23 123.13 1027.7 129.472C1025.12 135.747 1021.69 140.754 1017.42 144.493C1013.16 148.164 1008.37 150 1003.07 150Z"/>
<path d="M1085.09 147.997H1068.84C1068.41 147.997 1068.2 147.663 1068.2 146.996V30.0368H1049.49C1049.02 30.0368 1048.79 29.703 1048.79 29.0354L1048.93 6.10422C1048.93 5.57016 1049.12 5.30313 1049.49 5.30313H1104.22C1104.73 5.30313 1104.99 5.57016 1104.99 6.10422V29.0354C1104.99 29.703 1104.81 30.0368 1104.43 30.0368H1085.51L1085.65 146.996C1085.65 147.663 1085.46 147.997 1085.09 147.997Z"/>
<path d="M1140.58 147.997H1124.26C1123.79 147.997 1123.55 147.663 1123.55 146.996L1123.69 6.10422C1123.69 5.57016 1123.88 5.30313 1124.26 5.30313H1140.44C1140.81 5.30313 1141 5.57016 1141 6.10422L1141.14 146.996C1141.14 147.663 1140.95 147.997 1140.58 147.997Z"/>
<path d="M1191.99 150C1186.87 150 1182.16 148.131 1177.85 144.392C1173.58 140.654 1170.13 135.681 1167.51 129.472C1164.93 123.197 1163.64 116.321 1163.64 108.844L1163.78 43.8556C1163.78 36.2452 1165.07 29.4026 1167.65 23.3277C1170.18 17.186 1173.6 12.2793 1177.92 8.60763C1182.23 4.86921 1186.92 3 1191.99 3C1197.24 3 1201.95 4.83583 1206.13 8.50749C1210.35 12.1792 1213.72 17.1192 1216.26 23.3277C1218.83 29.4693 1220.12 36.312 1220.12 43.8556L1220.27 108.844C1220.27 116.321 1219 123.163 1216.47 129.372C1213.89 135.647 1210.46 140.654 1206.2 144.392C1201.93 148.131 1197.19 150 1191.99 150ZM1191.99 125.266C1194.89 125.266 1197.43 123.597 1199.58 120.26C1201.74 116.855 1202.82 113.05 1202.82 108.844L1202.68 43.8556C1202.68 39.3161 1201.67 35.4775 1199.65 32.3399C1197.64 29.2023 1195.08 27.6335 1191.99 27.6335C1189.03 27.6335 1186.5 29.1689 1184.39 32.2398C1182.28 35.3106 1181.22 39.1826 1181.22 43.8556V108.844C1181.22 113.317 1182.28 117.189 1184.39 120.46C1186.5 123.664 1189.03 125.266 1191.99 125.266Z"/>
<path d="M1258.38 147.997H1243.96C1243.21 147.997 1242.83 147.53 1242.83 146.595L1242.69 6.90531C1242.69 5.83719 1243.07 5.30313 1243.82 5.30313H1256.83L1281.17 86.1131L1280.47 6.90531C1280.47 5.83719 1280.89 5.30313 1281.74 5.30313H1296.02C1296.58 5.30313 1296.86 5.83719 1296.86 6.90531L1297 146.796C1297 147.597 1296.77 147.997 1296.3 147.997H1283.63L1258.66 72.4946L1259.72 146.395C1259.72 147.463 1259.27 147.997 1258.38 147.997Z"/>
</mask>
<path d="M19.8827 147.997H3.70345C3.23448 147.997 3 147.663 3 146.996L3.28138 6.10422C3.28138 5.57016 3.46896 5.30313 3.84414 5.30313H49.9903C50.4593 5.30313 50.6937 5.57016 50.6937 6.10422V29.2357C50.6937 29.7698 50.5062 30.0368 50.131 30.0368H20.5862V61.8801H50.131C50.5062 61.8801 50.6937 62.2139 50.6937 62.8815L50.8344 86.1131C50.8344 86.6471 50.5999 86.9142 50.131 86.9142H20.5862V146.996C20.5862 147.663 20.3517 147.997 19.8827 147.997Z" fill="white"/>
<path d="M101.682 150C96.6176 150 91.928 148.131 87.6135 144.392C83.299 140.654 79.8521 135.647 77.2728 129.372C74.7404 123.03 73.4742 116.121 73.4742 108.644L73.7556 6.10422C73.7556 5.57016 73.9431 5.30313 74.3183 5.30313H90.4976C90.8728 5.30313 91.0604 5.57016 91.0604 6.10422V108.644C91.0604 113.25 92.0921 117.189 94.1555 120.46C96.219 123.664 98.728 125.266 101.682 125.266C104.778 125.266 107.357 123.664 109.42 120.46C111.484 117.189 112.516 113.25 112.516 108.644V6.10422C112.516 5.57016 112.703 5.30313 113.078 5.30313H129.258C129.633 5.30313 129.82 5.57016 129.82 6.10422L130.102 108.644C130.102 116.187 128.835 123.13 126.303 129.472C123.724 135.747 120.3 140.754 116.033 144.493C111.765 148.164 106.982 150 101.682 150Z" fill="white"/>
<path d="M179.472 147.797L153.656 147.997C153.187 147.997 152.952 147.663 152.952 146.996L153.234 6.10422C153.234 5.57016 153.421 5.30313 153.797 5.30313L180.739 5.10286C186.085 4.90259 190.915 6.63828 195.23 10.3099C199.591 13.9816 203.061 18.955 205.641 25.2302C208.267 31.4387 209.58 38.3147 209.58 45.8583V104.738C209.58 112.616 208.243 119.826 205.57 126.368C202.85 132.843 199.239 138.017 194.737 141.889C190.235 145.694 185.147 147.663 179.472 147.797ZM180.739 29.6362L170.679 29.8365L170.539 122.763H179.472C183.037 122.763 186.038 120.994 188.477 117.456C190.915 113.918 192.135 109.678 192.135 104.738V45.658C192.135 41.3188 191.009 37.547 188.758 34.3426C186.507 31.0715 183.834 29.5027 180.739 29.6362Z" fill="white"/>
<path d="M258.951 147.797L233.134 147.997C232.665 147.997 232.431 147.663 232.431 146.996L232.712 6.10422C232.712 5.57016 232.9 5.30313 233.275 5.30313L260.217 5.10286C265.563 4.90259 270.393 6.63828 274.708 10.3099C279.069 13.9816 282.54 18.955 285.119 25.2302C287.745 31.4387 289.058 38.3147 289.058 45.8583V104.738C289.058 112.616 287.722 119.826 285.049 126.368C282.329 132.843 278.718 138.017 274.216 141.889C269.714 145.694 264.625 147.663 258.951 147.797ZM260.217 29.6362L250.158 29.8365L250.017 122.763H258.951C262.515 122.763 265.516 120.994 267.955 117.456C270.393 113.918 271.613 109.678 271.613 104.738V45.658C271.613 41.3188 270.487 37.547 268.236 34.3426C265.985 31.0715 263.312 29.5027 260.217 29.6362Z" fill="white"/>
<path d="M359.04 147.997H312.472C312.097 147.997 311.909 147.663 311.909 146.996L312.05 6.3045C312.05 5.63692 312.284 5.30313 312.753 5.30313H328.792C329.261 5.30313 329.495 5.63692 329.495 6.3045L329.355 122.763H359.04C359.509 122.763 359.744 123.097 359.744 123.764V146.996C359.744 147.663 359.509 147.997 359.04 147.997Z" fill="white"/>
<path d="M397.578 147.997H381.258C380.883 147.997 380.695 147.663 380.695 146.996L380.976 6.10422C380.976 5.57016 381.164 5.30313 381.539 5.30313H410.662C415.867 5.30313 420.651 7.10559 425.012 10.7105C429.374 14.3154 432.844 19.1553 435.423 25.2302C438.049 31.3052 439.363 38.1812 439.363 45.8583C439.363 50.8651 438.823 55.4046 437.745 59.4768C436.666 63.549 435.4 66.9871 433.946 69.7909C432.539 72.5947 431.249 74.6642 430.077 75.9993C435.283 84.2105 437.885 93.8569 437.885 104.939L438.026 146.996C438.026 147.663 437.792 147.997 437.323 147.997H421.003C420.627 147.997 420.44 147.797 420.44 147.396V104.939C420.44 99.9986 419.22 95.7262 416.782 92.1213C414.343 88.5163 411.342 86.7139 407.778 86.7139H398.281L398.141 146.996C398.141 147.663 397.953 147.997 397.578 147.997ZM410.662 29.8365H398.281V62.0804H410.662C413.616 62.0804 416.243 60.5116 418.54 57.374C420.885 54.2364 422.058 50.3978 422.058 45.8583C422.058 41.5191 420.932 37.7807 418.681 34.6431C416.43 31.4387 413.757 29.8365 410.662 29.8365Z" fill="white"/>
<path d="M537.19 147.797L511.373 147.997C510.904 147.997 510.67 147.663 510.67 146.996L510.951 6.10422C510.951 5.57016 511.139 5.30313 511.514 5.30313L538.456 5.10286C543.802 4.90259 548.632 6.63828 552.947 10.3099C557.308 13.9816 560.779 18.955 563.358 25.2302C565.984 31.4387 567.297 38.3147 567.297 45.8583V104.738C567.297 112.616 565.961 119.826 563.287 126.368C560.567 132.843 556.956 138.017 552.454 141.889C547.952 145.694 542.864 147.663 537.19 147.797ZM538.456 29.6362L528.396 29.8365L528.256 122.763H537.19C540.754 122.763 543.755 120.994 546.194 117.456C548.632 113.918 549.852 109.678 549.852 104.738V45.658C549.852 41.3188 548.726 37.547 546.475 34.3426C544.224 31.0715 541.551 29.5027 538.456 29.6362Z" fill="white"/>
<path d="M607.171 147.997H590.851C590.382 147.997 590.148 147.663 590.148 146.996L590.289 6.10422C590.289 5.57016 590.476 5.30313 590.851 5.30313H607.031C607.406 5.30313 607.593 5.57016 607.593 6.10422L607.734 146.996C607.734 147.663 607.547 147.997 607.171 147.997Z" fill="white"/>
<path d="M656.401 150C651.29 150 646.577 148.131 642.262 144.392C637.995 140.654 634.571 135.681 631.992 129.472C629.459 123.197 628.193 116.321 628.193 108.844V99.4312C628.193 98.6969 628.428 98.3297 628.897 98.3297H645.076C645.451 98.3297 645.639 98.6969 645.639 99.4312V108.844C645.639 113.317 646.694 117.189 648.804 120.46C650.914 123.664 653.447 125.266 656.401 125.266C659.403 125.266 661.959 123.631 664.069 120.36C666.179 117.022 667.234 113.183 667.234 108.844C667.234 103.837 664.937 99.4646 660.341 95.7262C659.59 95.0586 658.606 94.2575 657.386 93.3229C656.214 92.3215 654.807 91.1867 653.166 89.9183C651.524 88.6499 649.93 87.4148 648.382 86.2132C646.834 84.9448 645.334 83.7432 643.88 82.6083C638.628 78.2023 634.712 72.6948 632.132 66.0858C629.6 59.4101 628.334 51.9332 628.334 43.6553C628.334 36.045 629.647 29.1689 632.273 23.0272C634.899 16.9523 638.323 12.1458 642.543 8.60763C646.811 5.00272 651.43 3.20027 656.401 3.20027C661.513 3.20027 666.203 5.00272 670.47 8.60763C674.738 12.2793 678.138 17.1526 680.67 23.2275C683.25 29.3025 684.539 36.1117 684.539 43.6553V60.4782C684.539 61.0123 684.352 61.2793 683.977 61.2793H667.797C667.422 61.2793 667.234 61.0123 667.234 60.4782L667.094 43.6553C667.094 38.8488 666.039 34.9435 663.928 31.9394C661.818 28.9353 659.309 27.4332 656.401 27.4332C653.447 27.4332 650.914 29.0354 648.804 32.2398C646.694 35.4441 645.639 39.2493 645.639 43.6553C645.639 48.1281 646.295 51.8665 647.608 54.8706C648.968 57.8747 651.43 60.7452 654.995 63.4823C655.37 63.7493 656.237 64.4169 657.597 65.485C658.957 66.5531 660.458 67.7548 662.099 69.0899C663.788 70.3583 665.312 71.5266 666.672 72.5947C668.032 73.5961 668.852 74.1969 669.134 74.3971C673.917 78.2023 677.692 82.8753 680.459 88.4162C683.273 93.9571 684.68 100.766 684.68 108.844C684.68 116.655 683.414 123.664 680.881 129.873C678.302 136.081 674.879 140.988 670.611 144.593C666.343 148.198 661.607 150 656.401 150Z" fill="white"/>
<path d="M736.935 147.997H720.685C720.263 147.997 720.052 147.663 720.052 146.996V30.0368H701.34C700.871 30.0368 700.637 29.703 700.637 29.0354L700.778 6.10422C700.778 5.57016 700.965 5.30313 701.34 5.30313H756.069C756.585 5.30313 756.842 5.57016 756.842 6.10422V29.0354C756.842 29.703 756.655 30.0368 756.28 30.0368H737.357L737.498 146.996C737.498 147.663 737.31 147.997 736.935 147.997Z" fill="white"/>
<path d="M792.285 147.997H775.965C775.59 147.997 775.402 147.663 775.402 146.996L775.684 6.10422C775.684 5.57016 775.871 5.30313 776.246 5.30313H805.369C810.575 5.30313 815.358 7.10559 819.719 10.7105C824.081 14.3154 827.551 19.1553 830.13 25.2302C832.757 31.3052 834.07 38.1812 834.07 45.8583C834.07 50.8651 833.53 55.4046 832.452 59.4768C831.373 63.549 830.107 66.9871 828.653 69.7909C827.246 72.5947 825.957 74.6642 824.784 75.9993C829.99 84.2105 832.592 93.8569 832.592 104.939L832.733 146.996C832.733 147.663 832.499 147.997 832.03 147.997H815.71C815.335 147.997 815.147 147.797 815.147 147.396V104.939C815.147 99.9986 813.928 95.7262 811.489 92.1213C809.05 88.5163 806.049 86.7139 802.485 86.7139H792.988L792.848 146.996C792.848 147.663 792.66 147.997 792.285 147.997ZM805.369 29.8365H792.988V62.0804H805.369C808.324 62.0804 810.95 60.5116 813.248 57.374C815.593 54.2364 816.765 50.3978 816.765 45.8583C816.765 41.5191 815.639 37.7807 813.388 34.6431C811.137 31.4387 808.464 29.8365 805.369 29.8365Z" fill="white"/>
<path d="M873.451 147.997H857.132C856.663 147.997 856.428 147.663 856.428 146.996L856.569 6.10422C856.569 5.57016 856.756 5.30313 857.132 5.30313H873.311C873.686 5.30313 873.874 5.57016 873.874 6.10422L874.014 146.996C874.014 147.663 873.827 147.997 873.451 147.997Z" fill="white"/>
<path d="M924.581 147.997H898.764C898.389 147.997 898.202 147.663 898.202 146.996L898.483 6.10422C898.483 5.57016 898.671 5.30313 899.046 5.30313H926.762C932.155 5.30313 937.055 7.17234 941.464 10.9108C945.778 14.6492 949.178 19.6226 951.664 25.8311C954.149 31.9728 955.392 38.6485 955.392 45.8583C955.392 51.733 954.454 57.2071 952.578 62.2807C950.702 67.3542 948.475 71.4598 945.895 74.5974C948.662 78.5361 950.819 83.109 952.367 88.3161C953.915 93.5232 954.688 98.9973 954.688 104.738C954.688 112.683 953.352 119.926 950.679 126.468C947.959 133.01 944.324 138.251 939.775 142.189C935.226 146.061 930.162 147.997 924.581 147.997ZM926.762 29.6362H915.788V61.8801H926.762C930.091 61.8801 932.788 60.2112 934.851 56.8733C936.915 53.4687 937.946 49.797 937.946 45.8583C937.946 41.5191 936.844 37.7473 934.64 34.5429C932.436 31.2718 929.81 29.6362 926.762 29.6362ZM924.581 86.7139H915.788L915.647 122.963H924.581C928.051 122.963 931.029 121.161 933.515 117.556C936 113.951 937.243 109.678 937.243 104.738C937.243 99.7984 936 95.5593 933.515 92.0211C931.029 88.483 928.051 86.7139 924.581 86.7139Z" fill="white"/>
<path d="M1003.07 150C998.01 150 993.32 148.131 989.005 144.392C984.691 140.654 981.244 135.647 978.665 129.372C976.132 123.03 974.866 116.121 974.866 108.644L975.148 6.10422C975.148 5.57016 975.335 5.30313 975.71 5.30313H991.89C992.265 5.30313 992.452 5.57016 992.452 6.10422V108.644C992.452 113.25 993.484 117.189 995.547 120.46C997.611 123.664 1000.12 125.266 1003.07 125.266C1006.17 125.266 1008.75 123.664 1010.81 120.46C1012.88 117.189 1013.91 113.25 1013.91 108.644V6.10422C1013.91 5.57016 1014.1 5.30313 1014.47 5.30313H1030.65C1031.02 5.30313 1031.21 5.57016 1031.21 6.10422L1031.49 108.644C1031.49 116.187 1030.23 123.13 1027.7 129.472C1025.12 135.747 1021.69 140.754 1017.42 144.493C1013.16 148.164 1008.37 150 1003.07 150Z" fill="white"/>
<path d="M1085.09 147.997H1068.84C1068.41 147.997 1068.2 147.663 1068.2 146.996V30.0368H1049.49C1049.02 30.0368 1048.79 29.703 1048.79 29.0354L1048.93 6.10422C1048.93 5.57016 1049.12 5.30313 1049.49 5.30313H1104.22C1104.73 5.30313 1104.99 5.57016 1104.99 6.10422V29.0354C1104.99 29.703 1104.81 30.0368 1104.43 30.0368H1085.51L1085.65 146.996C1085.65 147.663 1085.46 147.997 1085.09 147.997Z" fill="white"/>
<path d="M1140.58 147.997H1124.26C1123.79 147.997 1123.55 147.663 1123.55 146.996L1123.69 6.10422C1123.69 5.57016 1123.88 5.30313 1124.26 5.30313H1140.44C1140.81 5.30313 1141 5.57016 1141 6.10422L1141.14 146.996C1141.14 147.663 1140.95 147.997 1140.58 147.997Z" fill="white"/>
<path d="M1191.99 150C1186.87 150 1182.16 148.131 1177.85 144.392C1173.58 140.654 1170.13 135.681 1167.51 129.472C1164.93 123.197 1163.64 116.321 1163.64 108.844L1163.78 43.8556C1163.78 36.2452 1165.07 29.4026 1167.65 23.3277C1170.18 17.186 1173.6 12.2793 1177.92 8.60763C1182.23 4.86921 1186.92 3 1191.99 3C1197.24 3 1201.95 4.83583 1206.13 8.50749C1210.35 12.1792 1213.72 17.1192 1216.26 23.3277C1218.83 29.4693 1220.12 36.312 1220.12 43.8556L1220.27 108.844C1220.27 116.321 1219 123.163 1216.47 129.372C1213.89 135.647 1210.46 140.654 1206.2 144.392C1201.93 148.131 1197.19 150 1191.99 150ZM1191.99 125.266C1194.89 125.266 1197.43 123.597 1199.58 120.26C1201.74 116.855 1202.82 113.05 1202.82 108.844L1202.68 43.8556C1202.68 39.3161 1201.67 35.4775 1199.65 32.3399C1197.64 29.2023 1195.08 27.6335 1191.99 27.6335C1189.03 27.6335 1186.5 29.1689 1184.39 32.2398C1182.28 35.3106 1181.22 39.1826 1181.22 43.8556V108.844C1181.22 113.317 1182.28 117.189 1184.39 120.46C1186.5 123.664 1189.03 125.266 1191.99 125.266Z" fill="white"/>
<path d="M1258.38 147.997H1243.96C1243.21 147.997 1242.83 147.53 1242.83 146.595L1242.69 6.90531C1242.69 5.83719 1243.07 5.30313 1243.82 5.30313H1256.83L1281.17 86.1131L1280.47 6.90531C1280.47 5.83719 1280.89 5.30313 1281.74 5.30313H1296.02C1296.58 5.30313 1296.86 5.83719 1296.86 6.90531L1297 146.796C1297 147.597 1296.77 147.997 1296.3 147.997H1283.63L1258.66 72.4946L1259.72 146.395C1259.72 147.463 1259.27 147.997 1258.38 147.997Z" fill="white"/>
<path d="M19.8827 147.997H3.70345C3.23448 147.997 3 147.663 3 146.996L3.28138 6.10422C3.28138 5.57016 3.46896 5.30313 3.84414 5.30313H49.9903C50.4593 5.30313 50.6937 5.57016 50.6937 6.10422V29.2357C50.6937 29.7698 50.5062 30.0368 50.131 30.0368H20.5862V61.8801H50.131C50.5062 61.8801 50.6937 62.2139 50.6937 62.8815L50.8344 86.1131C50.8344 86.6471 50.5999 86.9142 50.131 86.9142H20.5862V146.996C20.5862 147.663 20.3517 147.997 19.8827 147.997Z" stroke="white" stroke-width="6" mask="url(#path-1-outside-1_1148_5115)"/>
<path d="M101.682 150C96.6176 150 91.928 148.131 87.6135 144.392C83.299 140.654 79.8521 135.647 77.2728 129.372C74.7404 123.03 73.4742 116.121 73.4742 108.644L73.7556 6.10422C73.7556 5.57016 73.9431 5.30313 74.3183 5.30313H90.4976C90.8728 5.30313 91.0604 5.57016 91.0604 6.10422V108.644C91.0604 113.25 92.0921 117.189 94.1555 120.46C96.219 123.664 98.728 125.266 101.682 125.266C104.778 125.266 107.357 123.664 109.42 120.46C111.484 117.189 112.516 113.25 112.516 108.644V6.10422C112.516 5.57016 112.703 5.30313 113.078 5.30313H129.258C129.633 5.30313 129.82 5.57016 129.82 6.10422L130.102 108.644C130.102 116.187 128.835 123.13 126.303 129.472C123.724 135.747 120.3 140.754 116.033 144.493C111.765 148.164 106.982 150 101.682 150Z" stroke="white" stroke-width="6" mask="url(#path-1-outside-1_1148_5115)"/>
<path d="M179.472 147.797L153.656 147.997C153.187 147.997 152.952 147.663 152.952 146.996L153.234 6.10422C153.234 5.57016 153.421 5.30313 153.797 5.30313L180.739 5.10286C186.085 4.90259 190.915 6.63828 195.23 10.3099C199.591 13.9816 203.061 18.955 205.641 25.2302C208.267 31.4387 209.58 38.3147 209.58 45.8583V104.738C209.58 112.616 208.243 119.826 205.57 126.368C202.85 132.843 199.239 138.017 194.737 141.889C190.235 145.694 185.147 147.663 179.472 147.797ZM180.739 29.6362L170.679 29.8365L170.539 122.763H179.472C183.037 122.763 186.038 120.994 188.477 117.456C190.915 113.918 192.135 109.678 192.135 104.738V45.658C192.135 41.3188 191.009 37.547 188.758 34.3426C186.507 31.0715 183.834 29.5027 180.739 29.6362Z" stroke="white" stroke-width="6" mask="url(#path-1-outside-1_1148_5115)"/>
<path d="M258.951 147.797L233.134 147.997C232.665 147.997 232.431 147.663 232.431 146.996L232.712 6.10422C232.712 5.57016 232.9 5.30313 233.275 5.30313L260.217 5.10286C265.563 4.90259 270.393 6.63828 274.708 10.3099C279.069 13.9816 282.54 18.955 285.119 25.2302C287.745 31.4387 289.058 38.3147 289.058 45.8583V104.738C289.058 112.616 287.722 119.826 285.049 126.368C282.329 132.843 278.718 138.017 274.216 141.889C269.714 145.694 264.625 147.663 258.951 147.797ZM260.217 29.6362L250.158 29.8365L250.017 122.763H258.951C262.515 122.763 265.516 120.994 267.955 117.456C270.393 113.918 271.613 109.678 271.613 104.738V45.658C271.613 41.3188 270.487 37.547 268.236 34.3426C265.985 31.0715 263.312 29.5027 260.217 29.6362Z" stroke="white" stroke-width="6" mask="url(#path-1-outside-1_1148_5115)"/>
<path d="M359.04 147.997H312.472C312.097 147.997 311.909 147.663 311.909 146.996L312.05 6.3045C312.05 5.63692 312.284 5.30313 312.753 5.30313H328.792C329.261 5.30313 329.495 5.63692 329.495 6.3045L329.355 122.763H359.04C359.509 122.763 359.744 123.097 359.744 123.764V146.996C359.744 147.663 359.509 147.997 359.04 147.997Z" stroke="white" stroke-width="6" mask="url(#path-1-outside-1_1148_5115)"/>
<path d="M397.578 147.997H381.258C380.883 147.997 380.695 147.663 380.695 146.996L380.976 6.10422C380.976 5.57016 381.164 5.30313 381.539 5.30313H410.662C415.867 5.30313 420.651 7.10559 425.012 10.7105C429.374 14.3154 432.844 19.1553 435.423 25.2302C438.049 31.3052 439.363 38.1812 439.363 45.8583C439.363 50.8651 438.823 55.4046 437.745 59.4768C436.666 63.549 435.4 66.9871 433.946 69.7909C432.539 72.5947 431.249 74.6642 430.077 75.9993C435.283 84.2105 437.885 93.8569 437.885 104.939L438.026 146.996C438.026 147.663 437.792 147.997 437.323 147.997H421.003C420.627 147.997 420.44 147.797 420.44 147.396V104.939C420.44 99.9986 419.22 95.7262 416.782 92.1213C414.343 88.5163 411.342 86.7139 407.778 86.7139H398.281L398.141 146.996C398.141 147.663 397.953 147.997 397.578 147.997ZM410.662 29.8365H398.281V62.0804H410.662C413.616 62.0804 416.243 60.5116 418.54 57.374C420.885 54.2364 422.058 50.3978 422.058 45.8583C422.058 41.5191 420.932 37.7807 418.681 34.6431C416.43 31.4387 413.757 29.8365 410.662 29.8365Z" stroke="white" stroke-width="6" mask="url(#path-1-outside-1_1148_5115)"/>
<path d="M537.19 147.797L511.373 147.997C510.904 147.997 510.67 147.663 510.67 146.996L510.951 6.10422C510.951 5.57016 511.139 5.30313 511.514 5.30313L538.456 5.10286C543.802 4.90259 548.632 6.63828 552.947 10.3099C557.308 13.9816 560.779 18.955 563.358 25.2302C565.984 31.4387 567.297 38.3147 567.297 45.8583V104.738C567.297 112.616 565.961 119.826 563.287 126.368C560.567 132.843 556.956 138.017 552.454 141.889C547.952 145.694 542.864 147.663 537.19 147.797ZM538.456 29.6362L528.396 29.8365L528.256 122.763H537.19C540.754 122.763 543.755 120.994 546.194 117.456C548.632 113.918 549.852 109.678 549.852 104.738V45.658C549.852 41.3188 548.726 37.547 546.475 34.3426C544.224 31.0715 541.551 29.5027 538.456 29.6362Z" stroke="white" stroke-width="6" mask="url(#path-1-outside-1_1148_5115)"/>
<path d="M607.171 147.997H590.851C590.382 147.997 590.148 147.663 590.148 146.996L590.289 6.10422C590.289 5.57016 590.476 5.30313 590.851 5.30313H607.031C607.406 5.30313 607.593 5.57016 607.593 6.10422L607.734 146.996C607.734 147.663 607.547 147.997 607.171 147.997Z" stroke="white" stroke-width="6" mask="url(#path-1-outside-1_1148_5115)"/>
<path d="M656.401 150C651.29 150 646.577 148.131 642.262 144.392C637.995 140.654 634.571 135.681 631.992 129.472C629.459 123.197 628.193 116.321 628.193 108.844V99.4312C628.193 98.6969 628.428 98.3297 628.897 98.3297H645.076C645.451 98.3297 645.639 98.6969 645.639 99.4312V108.844C645.639 113.317 646.694 117.189 648.804 120.46C650.914 123.664 653.447 125.266 656.401 125.266C659.403 125.266 661.959 123.631 664.069 120.36C666.179 117.022 667.234 113.183 667.234 108.844C667.234 103.837 664.937 99.4646 660.341 95.7262C659.59 95.0586 658.606 94.2575 657.386 93.3229C656.214 92.3215 654.807 91.1867 653.166 89.9183C651.524 88.6499 649.93 87.4148 648.382 86.2132C646.834 84.9448 645.334 83.7432 643.88 82.6083C638.628 78.2023 634.712 72.6948 632.132 66.0858C629.6 59.4101 628.334 51.9332 628.334 43.6553C628.334 36.045 629.647 29.1689 632.273 23.0272C634.899 16.9523 638.323 12.1458 642.543 8.60763C646.811 5.00272 651.43 3.20027 656.401 3.20027C661.513 3.20027 666.203 5.00272 670.47 8.60763C674.738 12.2793 678.138 17.1526 680.67 23.2275C683.25 29.3025 684.539 36.1117 684.539 43.6553V60.4782C684.539 61.0123 684.352 61.2793 683.977 61.2793H667.797C667.422 61.2793 667.234 61.0123 667.234 60.4782L667.094 43.6553C667.094 38.8488 666.039 34.9435 663.928 31.9394C661.818 28.9353 659.309 27.4332 656.401 27.4332C653.447 27.4332 650.914 29.0354 648.804 32.2398C646.694 35.4441 645.639 39.2493 645.639 43.6553C645.639 48.1281 646.295 51.8665 647.608 54.8706C648.968 57.8747 651.43 60.7452 654.995 63.4823C655.37 63.7493 656.237 64.4169 657.597 65.485C658.957 66.5531 660.458 67.7548 662.099 69.0899C663.788 70.3583 665.312 71.5266 666.672 72.5947C668.032 73.5961 668.852 74.1969 669.134 74.3971C673.917 78.2023 677.692 82.8753 680.459 88.4162C683.273 93.9571 684.68 100.766 684.68 108.844C684.68 116.655 683.414 123.664 680.881 129.873C678.302 136.081 674.879 140.988 670.611 144.593C666.343 148.198 661.607 150 656.401 150Z" stroke="white" stroke-width="6" mask="url(#path-1-outside-1_1148_5115)"/>
<path d="M736.935 147.997H720.685C720.263 147.997 720.052 147.663 720.052 146.996V30.0368H701.34C700.871 30.0368 700.637 29.703 700.637 29.0354L700.778 6.10422C700.778 5.57016 700.965 5.30313 701.34 5.30313H756.069C756.585 5.30313 756.842 5.57016 756.842 6.10422V29.0354C756.842 29.703 756.655 30.0368 756.28 30.0368H737.357L737.498 146.996C737.498 147.663 737.31 147.997 736.935 147.997Z" stroke="white" stroke-width="6" mask="url(#path-1-outside-1_1148_5115)"/>
<path d="M792.285 147.997H775.965C775.59 147.997 775.402 147.663 775.402 146.996L775.684 6.10422C775.684 5.57016 775.871 5.30313 776.246 5.30313H805.369C810.575 5.30313 815.358 7.10559 819.719 10.7105C824.081 14.3154 827.551 19.1553 830.13 25.2302C832.757 31.3052 834.07 38.1812 834.07 45.8583C834.07 50.8651 833.53 55.4046 832.452 59.4768C831.373 63.549 830.107 66.9871 828.653 69.7909C827.246 72.5947 825.957 74.6642 824.784 75.9993C829.99 84.2105 832.592 93.8569 832.592 104.939L832.733 146.996C832.733 147.663 832.499 147.997 832.03 147.997H815.71C815.335 147.997 815.147 147.797 815.147 147.396V104.939C815.147 99.9986 813.928 95.7262 811.489 92.1213C809.05 88.5163 806.049 86.7139 802.485 86.7139H792.988L792.848 146.996C792.848 147.663 792.66 147.997 792.285 147.997ZM805.369 29.8365H792.988V62.0804H805.369C808.324 62.0804 810.95 60.5116 813.248 57.374C815.593 54.2364 816.765 50.3978 816.765 45.8583C816.765 41.5191 815.639 37.7807 813.388 34.6431C811.137 31.4387 808.464 29.8365 805.369 29.8365Z" stroke="white" stroke-width="6" mask="url(#path-1-outside-1_1148_5115)"/>
<path d="M873.451 147.997H857.132C856.663 147.997 856.428 147.663 856.428 146.996L856.569 6.10422C856.569 5.57016 856.756 5.30313 857.132 5.30313H873.311C873.686 5.30313 873.874 5.57016 873.874 6.10422L874.014 146.996C874.014 147.663 873.827 147.997 873.451 147.997Z" stroke="white" stroke-width="6" mask="url(#path-1-outside-1_1148_5115)"/>
<path d="M924.581 147.997H898.764C898.389 147.997 898.202 147.663 898.202 146.996L898.483 6.10422C898.483 5.57016 898.671 5.30313 899.046 5.30313H926.762C932.155 5.30313 937.055 7.17234 941.464 10.9108C945.778 14.6492 949.178 19.6226 951.664 25.8311C954.149 31.9728 955.392 38.6485 955.392 45.8583C955.392 51.733 954.454 57.2071 952.578 62.2807C950.702 67.3542 948.475 71.4598 945.895 74.5974C948.662 78.5361 950.819 83.109 952.367 88.3161C953.915 93.5232 954.688 98.9973 954.688 104.738C954.688 112.683 953.352 119.926 950.679 126.468C947.959 133.01 944.324 138.251 939.775 142.189C935.226 146.061 930.162 147.997 924.581 147.997ZM926.762 29.6362H915.788V61.8801H926.762C930.091 61.8801 932.788 60.2112 934.851 56.8733C936.915 53.4687 937.946 49.797 937.946 45.8583C937.946 41.5191 936.844 37.7473 934.64 34.5429C932.436 31.2718 929.81 29.6362 926.762 29.6362ZM924.581 86.7139H915.788L915.647 122.963H924.581C928.051 122.963 931.029 121.161 933.515 117.556C936 113.951 937.243 109.678 937.243 104.738C937.243 99.7984 936 95.5593 933.515 92.0211C931.029 88.483 928.051 86.7139 924.581 86.7139Z" stroke="white" stroke-width="6" mask="url(#path-1-outside-1_1148_5115)"/>
<path d="M1003.07 150C998.01 150 993.32 148.131 989.005 144.392C984.691 140.654 981.244 135.647 978.665 129.372C976.132 123.03 974.866 116.121 974.866 108.644L975.148 6.10422C975.148 5.57016 975.335 5.30313 975.71 5.30313H991.89C992.265 5.30313 992.452 5.57016 992.452 6.10422V108.644C992.452 113.25 993.484 117.189 995.547 120.46C997.611 123.664 1000.12 125.266 1003.07 125.266C1006.17 125.266 1008.75 123.664 1010.81 120.46C1012.88 117.189 1013.91 113.25 1013.91 108.644V6.10422C1013.91 5.57016 1014.1 5.30313 1014.47 5.30313H1030.65C1031.02 5.30313 1031.21 5.57016 1031.21 6.10422L1031.49 108.644C1031.49 116.187 1030.23 123.13 1027.7 129.472C1025.12 135.747 1021.69 140.754 1017.42 144.493C1013.16 148.164 1008.37 150 1003.07 150Z" stroke="white" stroke-width="6" mask="url(#path-1-outside-1_1148_5115)"/>
<path d="M1085.09 147.997H1068.84C1068.41 147.997 1068.2 147.663 1068.2 146.996V30.0368H1049.49C1049.02 30.0368 1048.79 29.703 1048.79 29.0354L1048.93 6.10422C1048.93 5.57016 1049.12 5.30313 1049.49 5.30313H1104.22C1104.73 5.30313 1104.99 5.57016 1104.99 6.10422V29.0354C1104.99 29.703 1104.81 30.0368 1104.43 30.0368H1085.51L1085.65 146.996C1085.65 147.663 1085.46 147.997 1085.09 147.997Z" stroke="white" stroke-width="6" mask="url(#path-1-outside-1_1148_5115)"/>
<path d="M1140.58 147.997H1124.26C1123.79 147.997 1123.55 147.663 1123.55 146.996L1123.69 6.10422C1123.69 5.57016 1123.88 5.30313 1124.26 5.30313H1140.44C1140.81 5.30313 1141 5.57016 1141 6.10422L1141.14 146.996C1141.14 147.663 1140.95 147.997 1140.58 147.997Z" stroke="white" stroke-width="6" mask="url(#path-1-outside-1_1148_5115)"/>
<path d="M1191.99 150C1186.87 150 1182.16 148.131 1177.85 144.392C1173.58 140.654 1170.13 135.681 1167.51 129.472C1164.93 123.197 1163.64 116.321 1163.64 108.844L1163.78 43.8556C1163.78 36.2452 1165.07 29.4026 1167.65 23.3277C1170.18 17.186 1173.6 12.2793 1177.92 8.60763C1182.23 4.86921 1186.92 3 1191.99 3C1197.24 3 1201.95 4.83583 1206.13 8.50749C1210.35 12.1792 1213.72 17.1192 1216.26 23.3277C1218.83 29.4693 1220.12 36.312 1220.12 43.8556L1220.27 108.844C1220.27 116.321 1219 123.163 1216.47 129.372C1213.89 135.647 1210.46 140.654 1206.2 144.392C1201.93 148.131 1197.19 150 1191.99 150ZM1191.99 125.266C1194.89 125.266 1197.43 123.597 1199.58 120.26C1201.74 116.855 1202.82 113.05 1202.82 108.844L1202.68 43.8556C1202.68 39.3161 1201.67 35.4775 1199.65 32.3399C1197.64 29.2023 1195.08 27.6335 1191.99 27.6335C1189.03 27.6335 1186.5 29.1689 1184.39 32.2398C1182.28 35.3106 1181.22 39.1826 1181.22 43.8556V108.844C1181.22 113.317 1182.28 117.189 1184.39 120.46C1186.5 123.664 1189.03 125.266 1191.99 125.266Z" stroke="white" stroke-width="6" mask="url(#path-1-outside-1_1148_5115)"/>
<path d="M1258.38 147.997H1243.96C1243.21 147.997 1242.83 147.53 1242.83 146.595L1242.69 6.90531C1242.69 5.83719 1243.07 5.30313 1243.82 5.30313H1256.83L1281.17 86.1131L1280.47 6.90531C1280.47 5.83719 1280.89 5.30313 1281.74 5.30313H1296.02C1296.58 5.30313 1296.86 5.83719 1296.86 6.90531L1297 146.796C1297 147.597 1296.77 147.997 1296.3 147.997H1283.63L1258.66 72.4946L1259.72 146.395C1259.72 147.463 1259.27 147.997 1258.38 147.997Z" stroke="white" stroke-width="6" mask="url(#path-1-outside-1_1148_5115)"/>
</g>
</svg>
